# xmcd
#
# Track frame offsets: 
#        180
#        54119
#        80060
#        134085
#        159791
#        216711
#
# Disc length: 3026 seconds
#
# Revision: 2
# Processed by: cddbd v1.5.1PL2 Copyright (c) Steve Scherf et al.
# Submitted via: ExactAudioCopy v0.95b4
#
DISCID=520bd006
DTITLE=The Johnny Griffin Quartet - Live At The Jazzhus Montmartre Cop
DTITLE=enhagen Vol. 2
DYEAR=1967
DGENRE=Jazz
TTITLE0=Old Folks
TTITLE1=Wee
TTITLE2=Leave Me Alone Blues
TTITLE3=Rhythm-A-Ning
TTITLE4=Blues For Harvey
TTITLE5=Wee - Theme
EXTD=YEAR: 1967
EXTT0=
EXTT1=
EXTT2=
EXTT3=
EXTT4=
EXTT5=
PLAYORDER=
